<?xml version="1.0" encoding="UTF-8" standalone="no"?>
<!-- Created with Inkscape (http://www.inkscape.org/) -->

<svg
   xmlns:dc="http://purl.org/dc/elements/1.1/"
   xmlns:cc="http://creativecommons.org/ns#"
   xmlns:rdf="http://www.w3.org/1999/02/22-rdf-syntax-ns#"
   xmlns:svg="http://www.w3.org/2000/svg"
   xmlns="http://www.w3.org/2000/svg"
   xmlns:sodipodi="http://sodipodi.sourceforge.net/DTD/sodipodi-0.dtd"
   xmlns:inkscape="http://www.inkscape.org/namespaces/inkscape"
   width="400"
   height="400"
   viewBox="0 0 400 400.00001"
   id="svg2"
   version="1.1"
   inkscape:version="0.91 r13725"
   sodipodi:docname="research_publications.svg">
  <defs
     id="defs4" />
  <sodipodi:namedview
     id="base"
     pagecolor="#ffffff"
     bordercolor="#666666"
     borderopacity="1.0"
     inkscape:pageopacity="0.0"
     inkscape:pageshadow="2"
     inkscape:zoom="1.979899"
     inkscape:cx="160.70574"
     inkscape:cy="197.99095"
     inkscape:document-units="px"
     inkscape:current-layer="layer1"
     showgrid="false"
     units="px"
     inkscape:snap-bbox="true"
     inkscape:bbox-paths="true"
     inkscape:bbox-nodes="true"
     inkscape:snap-bbox-edge-midpoints="true"
     inkscape:snap-intersection-paths="true"
     inkscape:object-nodes="true"
     inkscape:object-paths="true"
     inkscape:snap-global="false"
     inkscape:window-width="1920"
     inkscape:window-height="1016"
     inkscape:window-x="0"
     inkscape:window-y="27"
     inkscape:window-maximized="1" />
  <metadata
     id="metadata7">
    <rdf:RDF>
      <cc:Work
         rdf:about="">
        <dc:format>image/svg+xml</dc:format>
        <dc:type
           rdf:resource="http://purl.org/dc/dcmitype/StillImage" />
        <dc:title></dc:title>
      </cc:Work>
    </rdf:RDF>
  </metadata>
  <g
     inkscape:label="Layer 1"
     inkscape:groupmode="layer"
     id="layer1"
     transform="translate(0,-652.36216)">
    <path
       inkscape:connector-curvature="0"
       style="color:#000000;font-style:normal;font-variant:normal;font-weight:normal;font-stretch:normal;font-size:medium;line-height:normal;font-family:sans-serif;text-indent:0;text-align:start;text-decoration:none;text-decoration-line:none;text-decoration-style:solid;text-decoration-color:#000000;letter-spacing:normal;word-spacing:normal;text-transform:none;direction:ltr;block-progression:tb;writing-mode:lr-tb;baseline-shift:baseline;text-anchor:start;white-space:normal;clip-rule:nonzero;display:inline;overflow:visible;visibility:visible;opacity:1;isolation:auto;mix-blend-mode:normal;color-interpolation:sRGB;color-interpolation-filters:linearRGB;solid-color:#000000;solid-opacity:1;fill:#000000;fill-opacity:1;fill-rule:evenodd;stroke:none;stroke-width:12;stroke-linecap:round;stroke-linejoin:round;stroke-miterlimit:4;stroke-dasharray:none;stroke-dashoffset:0;stroke-opacity:1;color-rendering:auto;image-rendering:auto;shape-rendering:auto;text-rendering:auto;enable-background:accumulate"
       d="m 217.82163,716.4868 c -2.17159,-1.4e-4 -4.68534,0.49706 -6.33254,1.32446 L 11.822744,817.52292 c -0.03445,0.0173 -0.065,0.0409 -0.0987,0.0594 a 3.260514,3.260514 0 0 0 -1.166327,1.03367 c -4.3305563,6.29352 -5.8939523,16.4821 -5.9260706,26.81165 -0.032113,10.32955 1.4516205,20.55337 5.9557876,26.87639 a 3.260514,3.260514 0 0 0 2.075821,1.31596 c 2.990723,0.54062 46.973734,9.05021 89.814362,17.35371 42.84063,8.3035 84.8466,16.45694 84.8466,16.45694 a 3.260514,3.260514 0 0 0 2.08537,-0.28759 l 158.1658,-79.47239 0,-7.29722 -160.10047,80.4445 c -1.06054,-0.20583 -41.46635,-8.04785 -83.75669,-16.24469 -42.139198,-8.16754 -83.527035,-16.18266 -88.420925,-17.08521 -2.437588,-4.35229 -4.17273,-13.21174 -4.14528,-22.04023 0.02586,-8.31427 1.597433,-16.72651 3.772777,-21.33768 L 187.32634,857.4825 a 3.260514,3.260514 0 0 0 0.37994,0.0541 c 0.36958,0.0462 0.75871,0.0182 1.19285,-0.11461 a 3.260514,3.260514 0 0 0 0.13054,-0.0424 c 0.0495,-0.0173 0.0988,-0.0329 0.14964,-0.0531 a 3.260514,3.260514 0 0 0 0.25363,-0.11356 c 0.0352,-0.0166 0.0682,-0.0277 0.10401,-0.0456 L 394.92984,753.31992 c 2.19568,-1.10358 2.02045,-2.37605 -0.39264,-2.84311 L 219.83377,716.65873 c -0.60326,-0.1167 -1.28828,-0.17188 -2.01214,-0.17193 z m 172.74749,82.65511 a 3.260514,3.260514 0 0 0 -1.47198,0.36826 l -6.39301,3.21243 0,7.29722 9.32001,-4.68335 a 3.260514,3.260514 0 0 0 -1.45502,-6.19456 z"
       id="path4182" />
    <path
       style="opacity:1;fill:#fd862a;fill-opacity:1;fill-rule:nonzero;stroke:none;stroke-width:3;stroke-linecap:round;stroke-linejoin:round;stroke-miterlimit:4;stroke-dasharray:none;stroke-dashoffset:0;stroke-opacity:0.52631579"
       d="m 262.46455,744.83926 -25.81725,12.97283 62.2142,12.04316 25.81726,-12.97283 -62.21421,-12.04316 z"
       id="rect4147-3-7"
       inkscape:connector-curvature="0" />
    <path
       inkscape:connector-curvature="0"
       style="color:#000000;font-style:normal;font-variant:normal;font-weight:normal;font-stretch:normal;font-size:medium;line-height:normal;font-family:sans-serif;text-indent:0;text-align:start;text-decoration:none;text-decoration-line:none;text-decoration-style:solid;text-decoration-color:#000000;letter-spacing:normal;word-spacing:normal;text-transform:none;direction:ltr;block-progression:tb;writing-mode:lr-tb;baseline-shift:baseline;text-anchor:start;white-space:normal;clip-rule:nonzero;display:inline;overflow:visible;visibility:visible;opacity:1;isolation:auto;mix-blend-mode:normal;color-interpolation:sRGB;color-interpolation-filters:linearRGB;solid-color:#000000;solid-opacity:1;fill:#000000;fill-opacity:1;fill-rule:evenodd;stroke:none;stroke-width:12;stroke-linecap:round;stroke-linejoin:round;stroke-miterlimit:4;stroke-dasharray:none;stroke-dashoffset:0;stroke-opacity:1;color-rendering:auto;image-rendering:auto;shape-rendering:auto;text-rendering:auto;enable-background:accumulate"
       d="m 391.87238,848.81732 a 3.260514,3.260514 0 0 0 -0.60813,0.0647 c -0.29239,0.0871 -0.60102,0.1774 -0.67497,0.21332 a 3.260514,3.260514 0 0 0 -0.0902,0.0424 c -0.94334,0.47302 -32.48234,16.32093 -54.93922,27.60442 l 0,7.29615 57.76749,-29.0265 a 3.260514,3.260514 0 0 0 -1.45497,-6.19457 z M 12.44995,867.64725 a 3.260514,3.260514 0 0 0 -0.589002,0.64418 c -4.3305568,6.29352 -5.8939527,16.48207 -5.926071,26.81165 -0.032113,10.32952 1.4516204,20.55334 5.955787,26.87638 a 3.260514,3.260514 0 0 0 2.075822,1.31597 c 2.990722,0.54059 46.973733,9.05017 89.814354,17.35371 42.84063,8.30348 84.84661,16.45694 84.84661,16.45694 a 3.260514,3.260514 0 0 0 2.08537,-0.2876 l 109.71933,-55.13029 0,-7.29615 c -50.97278,25.61193 -103.17348,51.84038 -103.17348,51.84038 l -8.48053,4.26096 c -1.06053,-0.20583 -41.46635,-8.04788 -83.75669,-16.2447 C 62.882254,926.0811 21.494423,918.066 16.600533,917.16347 c -2.437588,-4.35231 -4.172731,-13.21175 -4.14528,-22.04023 0.02586,-8.31429 1.597432,-16.72652 3.772776,-21.33767 0,0 3.244588,-4.60867 3.107367,-4.64301 -0.103141,-0.0255 -4.347395,-0.94499 -6.885446,-1.49531 z"
       id="path4182-3" />
    <path
       style="color:#000000;font-style:normal;font-variant:normal;font-weight:normal;font-stretch:normal;font-size:medium;line-height:normal;font-family:sans-serif;text-indent:0;text-align:start;text-decoration:none;text-decoration-line:none;text-decoration-style:solid;text-decoration-color:#000000;letter-spacing:normal;word-spacing:normal;text-transform:none;direction:ltr;block-progression:tb;writing-mode:lr-tb;baseline-shift:baseline;text-anchor:start;white-space:normal;clip-rule:nonzero;display:inline;overflow:visible;visibility:visible;opacity:1;isolation:auto;mix-blend-mode:normal;color-interpolation:sRGB;color-interpolation-filters:linearRGB;solid-color:#000000;solid-opacity:1;fill:#000000;fill-opacity:1;fill-rule:evenodd;stroke:none;stroke-width:12;stroke-linecap:round;stroke-linejoin:round;stroke-miterlimit:4;stroke-dasharray:none;stroke-dashoffset:0;stroke-opacity:1;color-rendering:auto;image-rendering:auto;shape-rendering:auto;text-rendering:auto;enable-background:accumulate"
       d="m 391.87184,898.75376 a 3.260514,3.260514 0 0 0 -0.60705,0.0648 c -0.29239,0.0871 -0.60205,0.17735 -0.676,0.21327 a 3.260514,3.260514 0 0 0 -0.0902,0.0424 c -3.31811,1.66378 -193.24041,97.09469 -193.24041,97.09469 l -8.48052,4.26093 c -1.06054,-0.2058 -41.46636,-8.04786 -83.75669,-16.24468 -42.139205,-8.16758 -83.527047,-16.1827 -88.420937,-17.08523 -2.437588,-4.35235 -4.172731,-13.2118 -4.14528,-22.04028 0.02586,-8.3143 1.597432,-16.7265 3.772776,-21.33766 0,0 3.244588,-4.60864 3.107367,-4.64299 -0.103141,-0.0255 -4.347395,-0.94502 -6.885446,-1.49534 a 3.260514,3.260514 0 0 0 -0.589002,0.64416 c -4.3305567,6.29351 -5.8939526,16.48209 -5.9260709,26.81167 -0.032113,10.32953 1.4516204,20.55337 5.9557879,26.87645 a 3.260514,3.260514 0 0 0 2.075821,1.31597 c 2.990723,0.54059 46.973739,9.05017 89.814364,17.35371 42.84063,8.30348 84.8466,16.45692 84.8466,16.45692 a 3.260514,3.260514 0 0 0 2.08538,-0.2876 L 393.32686,904.94828 a 3.260514,3.260514 0 0 0 -1.45502,-6.19458 z"
       id="path4182-3-5"
       inkscape:connector-curvature="0" />
    <path
       inkscape:connector-curvature="0"
       style="opacity:1;fill:#fd862a;fill-opacity:1;fill-rule:nonzero;stroke:none;stroke-width:12.80000019;stroke-linecap:round;stroke-linejoin:round;stroke-miterlimit:4;stroke-dasharray:none;stroke-dashoffset:0;stroke-opacity:1"
       d="m 354.02464,795.95904 0,64.23169 11.11469,-23.13294 11.11528,11.99554 0,-64.23268 -22.22997,11.13839 z"
       id="rect4438-6" />
    <path
       inkscape:connector-curvature="0"
       style="opacity:1;fill:#fd862a;fill-opacity:1;fill-rule:nonzero;stroke:none;stroke-width:12.80000019;stroke-linecap:round;stroke-linejoin:round;stroke-miterlimit:4;stroke-dasharray:none;stroke-dashoffset:0;stroke-opacity:1"
       d="m 306.88086,872.44295 0,64.23167 11.11468,-23.13291 11.11529,11.99551 0,-64.23265 -22.22997,11.13838 z"
       id="rect4438-6-1" />
  </g>
</svg>
